# xmcd
#
# Track frame offsets:
#	150
#	11753
#	23481
#	35159
#	47995
#	59939
#	71301
#	83884
#	96443
#	105529
#	117567
#	123297
#	134698
#	142220
#	150192
#
# Disc length: 2124 seconds
#
# Revision: 0
# Processed by: cddbd v1.5.1PL2 Copyright (c) Steve Scherf et al.
# Submitted via: dBpowerAMP V4.0
#
DISCID=da084a0f
DTITLE=George Jones - Tender Years Disk 1 and 2
DYEAR=1900
DGENRE=Country
TTITLE0=Your Tender Years
TTITLE1=There's No Justice
TTITLE2=Once A Day
TTITLE3=Brothers of a Bottle
TTITLE4=She Thinks I Still Care
TTITLE5=From Now On All My Friends Are Gonna Be Strangers
TTITLE6=The Selfishness of A Man
TTITLE7=I Can't Escape From You
TTITLE8=Jonesy
TTITLE9=They'll Never Take Her Love From Me
TTITLE10=Liberty
TTITLE11=World Of Forgotten People
TTITLE12=Ragged, But Right
TTITLE13=Yes, I Know Why
TTITLE14=Old Brush Arbor
EXTD=
EXTT0=
EXTT1=
EXTT2=
EXTT3=
EXTT4=
EXTT5=
EXTT6=
EXTT7=
EXTT8=
EXTT9=
EXTT10=
EXTT11=
EXTT12=
EXTT13=
EXTT14=
PLAYORDER=
